<svg version="1.1" id="Layer_1" xmlns="http://www.w3.org/2000/svg" x="0px" y="0px" viewBox="0 0 40 40">
    <g fill="#AFB1B3">
        <rect x="8.8" y="30" width="15.2" height="2.5"/>
        <path d="M10,35.1h12.7l0,0c0,1.4-1.1,2.5-2.5,2.5h-7.6C11.2,37.6,10,36.5,10,35.1z"/>
        <path d="M36.3,31.6v4.2l-1.4-1.4c-0.9,1-2.2,1.6-3.6,1.6c-2.5,0-4.6-1.9-5-4.4h1.5c0.3,1.6,1.7,2.9,3.4,2.9
		c1,0,1.9-0.4,2.6-1.1l-1.7-1.7L36.3,31.6z"/>
        <path d="M26.4,29.4L26.4,29.4v-4.2l1.4,1.4c0.9-1,2.2-1.6,3.6-1.6c2.5,0,4.6,1.9,5,4.4h-1.5c-0.3-1.6-1.7-2.9-3.4-2.9
		c-1,0-1.9,0.4-2.6,1.1l1.7,1.7L26.4,29.4L26.4,29.4z"/>
    </g>
    <path fill="#6E6E6E" d="M17,2.1v25.4h7c0-5.2,5.1-4.6,5.1-14.7C29.1,7.4,23.7,2.4,17,2.1z"/>
    <path fill="#F0A732" d="M15.8,2.1C9,2.5,3.7,7.3,3.7,12.8c0,10.1,5.1,9.7,5.1,14.7h7V2.1z"/>
</svg>
